<svg width="339" height="339" viewBox="0 0 339 339" fill="none" xmlns="http://www.w3.org/2000/svg">
<circle cx="169.215" cy="169.215" r="15" fill="#72D5FF" style="fill:#72D5FF;fill:color(display-p3 0.4471 0.8341 1.0000);fill-opacity:1;"/>
<circle cx="167.366" cy="107.085" r="19" transform="rotate(-2.68638 167.366 107.085)" fill="#56ADFF" style="fill:#56ADFF;fill:color(display-p3 0.3365 0.6793 1.0000);fill-opacity:1;"/>
<ellipse cx="222.3" cy="136.555" rx="19" ry="19" transform="rotate(57.3136 222.3 136.555)" fill="#56ADFF" style="fill:#56ADFF;fill:color(display-p3 0.3365 0.6793 1.0000);fill-opacity:1;"/>
<ellipse cx="223.938" cy="199.189" rx="19" ry="19" transform="rotate(117.314 223.938 199.189)" fill="#56ADFF" style="fill:#56ADFF;fill:color(display-p3 0.3365 0.6793 1.0000);fill-opacity:1;"/>
<ellipse cx="170.228" cy="232.088" rx="19" ry="19" transform="rotate(177.314 170.228 232.088)" fill="#56ADFF" style="fill:#56ADFF;fill:color(display-p3 0.3365 0.6793 1.0000);fill-opacity:1;"/>
<circle cx="115.453" cy="202.027" r="19" transform="rotate(-122.686 115.453 202.027)" fill="#56ADFF" style="fill:#56ADFF;fill:color(display-p3 0.3365 0.6793 1.0000);fill-opacity:1;"/>
<ellipse cx="113.815" cy="139.393" rx="19" ry="19" transform="rotate(-62.6864 113.815 139.393)" fill="#56ADFF" style="fill:#56ADFF;fill:color(display-p3 0.3365 0.6793 1.0000);fill-opacity:1;"/>
<ellipse cx="117.711" cy="42.4975" rx="30" ry="30" transform="rotate(-20.3265 117.711 42.4975)" fill="#2D69FF" style="fill:#2D69FF;fill:color(display-p3 0.1779 0.4108 1.0000);fill-opacity:1;"/>
<ellipse cx="222.399" cy="43.1936" rx="30" ry="30" transform="rotate(24.6735 222.399 43.1936)" fill="#2D69FF" style="fill:#2D69FF;fill:color(display-p3 0.1779 0.4108 1.0000);fill-opacity:1;"/>
<ellipse cx="295.932" cy="117.711" rx="30" ry="30" transform="rotate(69.6735 295.932 117.711)" fill="#2D69FF" style="fill:#2D69FF;fill:color(display-p3 0.1779 0.4108 1.0000);fill-opacity:1;"/>
<ellipse cx="295.237" cy="222.399" rx="30" ry="30" transform="rotate(114.673 295.237 222.399)" fill="#2D69FF" style="fill:#2D69FF;fill:color(display-p3 0.1779 0.4108 1.0000);fill-opacity:1;"/>
<ellipse cx="220.718" cy="295.932" rx="30" ry="30" transform="rotate(159.673 220.718 295.932)" fill="#2D69FF" style="fill:#2D69FF;fill:color(display-p3 0.1779 0.4108 1.0000);fill-opacity:1;"/>
<ellipse cx="116.03" cy="295.236" rx="30" ry="30" transform="rotate(-155.327 116.03 295.236)" fill="#2D69FF" style="fill:#2D69FF;fill:color(display-p3 0.1779 0.4108 1.0000);fill-opacity:1;"/>
<ellipse cx="42.4974" cy="220.718" rx="30" ry="30" transform="rotate(-110.327 42.4974 220.718)" fill="#2D69FF" style="fill:#2D69FF;fill:color(display-p3 0.1779 0.4108 1.0000);fill-opacity:1;"/>
<ellipse cx="43.1936" cy="116.031" rx="30" ry="30" transform="rotate(-65.3265 43.1936 116.031)" fill="#2D69FF" style="fill:#2D69FF;fill:color(display-p3 0.1779 0.4108 1.0000);fill-opacity:1;"/>
</svg>
